<?xml version="1.0" standalone="no"?>
<!DOCTYPE svg PUBLIC "-//W3C//DTD SVG 20010904//EN"
 "http://www.w3.org/TR/2001/REC-SVG-20010904/DTD/svg10.dtd">
<svg version="1.0" xmlns="http://www.w3.org/2000/svg"
 width="362.000000pt" height="362.000000pt" viewBox="0 0 362.000000 362.000000"
 preserveAspectRatio="xMidYMid meet">
<metadata>
Created by potrace 1.11, written by Peter Selinger 2001-2013
</metadata>
<g transform="translate(0.000000,362.000000) scale(0.100000,-0.100000)"
fill="#000000" stroke="none">
<path d="M1891 2953 c3 -19 -2 -25 -14 -15 -14 12 -42 11 -54 -3 -4 -4 -2 -5
5 -1 6 4 12 5 12 2 0 -3 -10 -10 -21 -17 -15 -8 -19 -8 -15 0 4 6 2 11 -3 11
-6 0 -11 -7 -11 -15 0 -9 -6 -12 -17 -8 -11 4 -14 3 -9 -5 13 -21 -3 -32 -30
-21 -21 8 -25 7 -21 -5 4 -10 -4 -18 -24 -25 -16 -5 -29 -15 -29 -20 0 -6 -5
-11 -11 -11 -5 0 -7 5 -4 10 3 6 1 10 -4 10 -6 0 -11 -9 -11 -20 0 -11 -5 -20
-11 -20 -5 0 -8 4 -5 8 2 4 0 14 -5 22 -9 13 -10 13 -8 0 1 -8 1 -22 0 -30 -1
-13 -2 -13 -11 0 -6 10 -10 11 -10 3 0 -7 -9 -22 -20 -33 -11 -11 -20 -16 -20
-12 0 19 -44 6 -58 -18 -22 -33 -34 -41 -48 -29 -8 6 -16 3 -25 -8 -13 -17
-13 -17 6 -3 19 14 19 14 6 -2 -7 -10 -22 -18 -32 -18 -11 0 -19 -4 -19 -10 0
-5 -11 -12 -25 -16 -14 -3 -25 -10 -25 -16 0 -5 -4 -6 -10 -3 -5 3 -10 2 -10
-4 0 -6 -7 -8 -15 -5 -11 5 -13 2 -9 -10 5 -12 2 -15 -10 -10 -9 3 -13 11 -9
17 3 6 1 7 -6 3 -9 -6 -9 -11 0 -22 10 -12 9 -13 -6 -8 -14 6 -16 4 -10 -7 7
-11 6 -12 -6 -2 -10 8 -19 9 -29 1 -12 -8 -12 -9 3 -4 9 3 17 1 17 -3 0 -14
-27 -20 -38 -9 -6 6 -12 6 -17 -3 -5 -8 -4 -10 3 -5 7 4 12 3 12 -1 0 -8 -34
-33 -47 -34 -5 0 -16 -8 -26 -17 -23 -21 -50 -25 -43 -7 3 8 1 17 -5 20 -5 4
-9 3 -8 -2 4 -25 -2 -53 -11 -48 -6 4 -7 11 -4 17 4 7 2 8 -4 4 -6 -4 -9 -13
-6 -21 4 -10 0 -12 -15 -8 -13 3 -21 1 -21 -6 0 -7 6 -9 13 -5 6 4 9 3 4 -1
-4 -5 -17 -10 -29 -12 -24 -4 -40 -22 -32 -35 3 -4 0 -8 -5 -8 -6 0 -11 -7
-11 -15 0 -8 6 -15 13 -15 7 0 8 -3 2 -8 -14 -10 -15 -52 -2 -52 6 0 2 -7 -9
-16 -10 -8 -12 -12 -4 -8 8 4 12 4 8 -1 -4 -4 -2 -15 5 -23 10 -13 9 -14 -2
-7 -11 6 -13 4 -8 -9 5 -13 3 -17 -5 -13 -22 8 -17 -56 7 -76 11 -10 14 -16 6
-15 -7 2 -16 -3 -19 -11 -2 -8 0 -11 5 -8 5 3 8 -7 7 -24 -1 -16 3 -29 9 -29
8 0 9 -3 2 -8 -12 -8 -13 -41 -2 -59 6 -9 2 -13 -10 -13 -15 0 -16 -2 -3 -10
12 -8 12 -10 -5 -10 -11 0 -15 -4 -10 -8 15 -11 36 -52 27 -52 -5 0 -14 10
-21 23 -6 12 -9 14 -7 5 3 -10 0 -18 -7 -19 -7 0 -1 -5 13 -11 24 -10 24 -10
5 -18 -11 -5 -15 -9 -10 -9 6 -1 15 -12 22 -26 9 -21 9 -25 -5 -25 -15 0 -15
-2 -2 -10 12 -8 12 -10 -5 -10 -11 0 -15 -4 -10 -8 15 -11 36 -52 27 -52 -5 0
-14 10 -21 23 -6 12 -9 14 -7 5 3 -10 0 -18 -7 -19 -7 0 -1 -5 13 -11 24 -10
24 -10 5 -18 -11 -5 -15 -9 -9 -9 7 -1 14 -13 17 -27 3 -16 0 -24 -7 -21 -21
8 -13 -57 9 -76 11 -10 14 -16 6 -15 -7 2 -16 -3 -19 -11 -3 -8 0 -11 7 -7 7
5 9 1 4 -10 -4 -11 -3 -15 4 -11 15 9 10 -20 -5 -35 -9 -9 -11 -6 -7 10 2 12
0 24 -4 26 -16 11 -5 -50 12 -64 18 -15 18 -16 1 -30 -16 -13 -17 -13 -9 0 4
8 4 12 0 7 -5 -4 -10 -15 -11 -23 -1 -9 0 -13 3 -10 3 3 12 -2 19 -12 9 -12 9
-22 2 -36 -7 -13 -6 -21 3 -28 11 -8 10 -9 -3 -4 -10 3 -20 0 -24 -6 -4 -6 -3
-9 2 -6 5 3 20 1 34 -4 25 -9 25 -10 5 -25 -16 -12 -16 -14 -3 -10 10 3 20 2
24 -4 3 -6 13 -8 21 -5 9 4 13 1 10 -6 -2 -7 -13 -11 -23 -10 -10 2 -16 1 -13
-2 12 -12 49 -15 55 -4 5 7 2 8 -6 3 -9 -5 -11 -4 -6 3 5 8 13 9 25 2 10 -5
20 -8 22 -7 2 1 3 0 1 -3 -2 -3 -8 -5 -13 -5 -17 0 -14 -18 4 -21 9 -1 17 1
17 5 0 4 6 8 13 8 8 0 14 -6 14 -13 0 -7 -4 -11 -8 -8 -4 2 -11 0 -14 -6 -4
-6 -3 -10 2 -9 4 1 11 0 16 -1 8 -3 23 -7 33 -9 4 0 0 -9 -7 -18 -13 -16 -12
-17 4 -4 14 11 20 11 32 1 8 -7 15 -8 15 -3 0 10 -49 38 -62 35 -4 -1 -5 5 -2
12 4 12 10 10 26 -6 11 -11 26 -17 34 -14 7 3 13 2 13 -2 -3 -20 3 -23 19 -11
16 13 16 12 1 -6 -23 -29 -14 -46 18 -34 27 10 43 5 43 -14 0 -8 -3 -7 -9 2
-5 7 -14 10 -20 7 -17 -11 -3 -25 19 -21 12 2 20 -2 20 -9 0 -7 7 -13 15 -13
13 0 13 3 -2 19 -9 10 -13 21 -10 24 4 4 9 -1 13 -10 3 -9 10 -13 15 -10 5 3
9 2 8 -3 -5 -29 27 -43 43 -19 5 8 8 7 8 -1 0 -22 3 -28 19 -41 15 -11 15 -12
0 -6 -10 3 -19 1 -23 -4 -8 -14 30 -7 51 9 17 13 17 13 3 -5 -14 -18 -13 -19
1 -14 9 4 22 1 28 -5 8 -8 11 -7 11 3 0 7 3 10 6 7 4 -4 -1 -18 -10 -32 -17
-25 -17 -25 4 -13 11 7 20 17 20 22 0 4 7 3 15 -4 12 -10 13 -16 4 -27 -7 -7
-9 -16 -5 -20 3 -3 6 -1 6 5 0 7 5 12 11 12 6 0 8 -7 5 -16 -3 -9 -2 -12 5 -9
5 4 7 15 4 26 -4 11 -2 19 5 19 6 0 9 -4 5 -9 -3 -5 -1 -12 4 -16 6 -3 7 -13
4 -23 -6 -15 -5 -16 12 -2 11 9 16 10 11 2 -4 -7 -1 -12 9 -12 9 0 13 4 10 10
-3 5 -1 10 4 10 14 0 14 -13 -1 -28 -9 -9 -9 -12 1 -12 7 0 9 -5 5 -12 -5 -9
-2 -9 9 1 18 15 23 26 7 16 -6 -3 -7 1 -3 10 4 13 8 14 14 4 4 -7 5 -17 2 -23
-4 -5 1 -7 11 -3 9 4 14 3 11 -2 -3 -5 -1 -12 5 -16 5 -3 10 -1 10 4 0 6 4 11
10 11 5 0 7 -7 4 -15 -4 -8 -1 -15 6 -15 6 0 8 -5 4 -12 -5 -7 -3 -8 5 -4 7 5
10 15 6 25 -5 12 -4 13 6 4 9 -9 8 -18 -6 -40 -18 -28 -18 -28 2 -11 18 16 21
16 42 2 12 -9 20 -22 18 -28 -3 -7 1 -13 8 -13 8 0 11 7 7 15 -3 9 -1 13 5 9
6 -4 14 -1 16 5 4 10 6 10 6 0 1 -7 5 -10 11 -7 6 3 7 -1 4 -9 -7 -19 7 -21
25 -4 8 7 11 8 8 2 -4 -6 5 -16 18 -22 16 -7 23 -17 19 -27 -3 -8 -1 -15 5
-15 6 0 10 6 9 13 -2 7 7 11 22 10 14 -1 20 1 13 3 -10 4 -10 8 0 19 9 9 14
10 20 1 5 -6 7 -2 4 12 -5 19 -3 21 9 11 14 -11 19 -2 15 24 -1 5 3 6 9 2 6
-3 8 -10 5 -15 -3 -5 0 -12 6 -16 7 -4 9 -3 5 4 -3 6 -1 14 5 18 8 4 8 8 0 13
-6 4 -3 11 9 19 13 8 20 9 20 1 0 -5 5 -7 12 -3 6 4 8 3 4 -4 -3 -6 -1 -14 5
-18 8 -5 9 -3 4 6 -6 9 -2 10 16 5 23 -7 23 -6 5 8 -19 14 -19 15 1 21 11 4
28 4 37 0 9 -3 16 -1 16 6 0 6 -4 8 -10 5 -5 -3 -10 1 -10 10 0 13 4 14 21 4
17 -9 20 -8 13 3 -12 19 -14 39 -3 32 5 -3 7 -9 4 -14 -3 -4 3 -10 13 -12 11
-3 19 0 19 8 0 7 -5 11 -10 7 -5 -3 -4 4 2 16 14 25 19 27 17 4 0 -10 7 -18
19 -20 19 -3 19 -3 1 5 -24 11 -7 23 23 17 12 -2 19 0 16 4 -3 5 3 19 13 32
15 17 21 19 27 9 5 -8 4 -11 -3 -6 -6 3 -13 2 -16 -3 -4 -5 -2 -12 3 -15 5 -4
12 -2 16 4 4 6 12 7 18 4 8 -5 8 -3 0 7 -19 20 -16 29 11 29 14 0 28 5 32 12
4 7 3 8 -4 4 -8 -5 -10 -2 -6 8 5 14 8 14 21 1 8 -8 19 -15 24 -15 6 0 3 7 -5
16 -22 21 -20 27 4 14 11 -6 20 -7 20 -3 0 4 7 -2 15 -13 14 -16 13 -14 0 15
-9 18 -12 30 -7 27 6 -3 12 -3 15 1 2 5 2 2 0 -5 -1 -7 2 -10 8 -7 5 4 16 2
24 -5 10 -8 15 -8 21 1 4 7 3 9 -4 5 -6 -3 -16 2 -22 13 -7 14 -7 22 2 27 6 4
8 3 4 -4 -3 -6 -2 -13 4 -17 5 -3 10 -2 10 3 0 5 14 8 30 7 17 -1 33 2 37 8 3
6 1 7 -6 3 -6 -4 -14 0 -18 9 -6 18 15 38 31 28 5 -4 7 1 3 11 -4 11 -3 15 4
11 6 -4 8 -13 5 -21 -3 -8 -1 -14 4 -14 6 0 10 9 10 19 0 19 15 35 35 36 6 1
9 6 8 12 -2 7 6 10 20 7 46 -11 60 -9 63 9 2 18 1 18 -16 2 -21 -19 -31 -9
-19 20 7 19 8 19 8 1 1 -15 4 -16 15 -7 11 10 17 8 26 -6 10 -16 11 -16 6 0
-3 9 -1 17 4 17 5 0 7 8 4 18 -5 14 -4 14 4 2 6 -8 8 -18 6 -22 -3 -4 0 -8 7
-8 7 0 9 10 7 24 -4 17 -1 23 9 19 7 -3 11 -8 8 -12 -2 -4 2 -8 10 -8 20 0 19
7 -2 24 -10 8 -13 12 -6 8 8 -4 15 5 19 22 4 15 11 34 17 41 7 9 6 11 -7 6
-12 -5 -19 -1 -23 14 -2 11 -13 22 -24 25 -10 3 -17 2 -14 -2 2 -4 -2 -8 -10
-8 -8 0 -13 3 -13 6 2 12 -15 41 -24 41 -5 0 -7 -4 -4 -9 10 -16 -20 -6 -48
17 -16 12 -33 22 -37 22 -5 0 -9 5 -9 11 0 5 5 7 12 3 7 -4 8 -3 4 5 -6 9 -11
9 -24 -1 -9 -7 -13 -8 -9 -2 6 10 -24 27 -43 26 -3 0 -17 9 -30 20 -14 11 -19
17 -12 13 6 -3 12 -3 12 2 0 13 -49 32 -56 22 -3 -5 0 -8 7 -7 6 2 14 -4 16
-12 4 -12 3 -12 -5 -2 -5 8 -13 14 -18 15 -5 1 -8 5 -7 10 2 4 -4 7 -13 7 -8
0 -13 4 -9 10 3 5 13 6 23 3 16 -6 16 -6 0 10 -9 9 -23 17 -30 18 -7 0 -3 4
10 9 19 8 21 13 12 30 -6 11 -15 18 -19 16 -7 -4 -7 16 -2 57 1 4 6 7 12 7 8
0 8 -5 -1 -15 -9 -10 -9 -15 -1 -15 11 0 15 13 12 39 -2 8 2 10 10 5 8 -4 10
-3 5 5 -6 9 -11 9 -22 0 -8 -6 -17 -9 -21 -5 -3 3 -1 6 6 6 7 0 9 5 6 10 -8
12 53 9 75 -5 12 -6 13 -5 3 6 -18 19 -16 33 2 15 8 -8 15 -19 15 -23 0 -5 13
-8 29 -7 26 2 29 -1 27 -26 -1 -19 3 -27 14 -26 8 1 14 -5 12 -14 -3 -12 -1
-13 10 -2 11 11 10 15 -4 23 -10 6 -18 15 -18 22 0 8 3 7 9 -2 5 -8 16 -11 24
-8 12 4 14 2 10 -10 -5 -13 -2 -15 11 -10 9 4 15 3 11 -2 -6 -11 13 -25 35
-26 20 0 29 25 19 53 -5 13 -6 21 -1 19 4 -3 13 1 19 8 10 11 9 15 -7 20 -11
4 -18 11 -14 16 3 5 11 6 17 3 8 -5 8 -3 0 7 -18 18 -16 46 3 57 15 8 15 10 0
15 -11 5 -15 3 -10 -5 4 -6 3 -8 -4 -4 -7 4 -8 17 -2 35 5 18 4 33 -2 39 -8 8
-4 9 13 6 19 -5 21 -3 9 5 -8 5 -15 27 -16 50 -1 35 1 39 12 24 7 -10 10 -21
8 -25 -3 -5 6 -4 20 2 16 6 27 6 31 -1 4 -5 10 -7 14 -5 4 3 8 -1 8 -9 0 -12
-3 -12 -16 -2 -12 9 -13 9 -7 0 4 -7 15 -17 26 -23 15 -8 17 -6 14 13 -3 17
-2 16 6 -4 8 -20 16 -26 33 -22 20 4 20 3 -3 -12 -23 -15 -24 -15 -2 -10 35
10 65 -4 59 -27 -4 -15 -2 -17 8 -8 7 6 19 8 27 5 10 -4 14 3 13 27 0 18 4 36
8 39 5 3 1 13 -7 22 -9 9 -12 17 -5 19 17 6 17 42 0 62 -9 11 -10 16 -3 12 16
-10 21 32 7 67 -4 10 -3 17 4 17 6 0 11 7 11 16 0 8 -4 12 -10 9 -5 -3 -10 -1
-10 4 0 6 5 11 11 11 5 0 7 5 4 10 -4 6 6 10 22 10 24 -1 25 -2 11 -11 -10 -5
-18 -15 -18 -22 0 -9 2 -9 8 -1 8 13 64 16 56 3 -3 -5 3 -6 12 -2 12 4 15 3
10 -5 -5 -8 -2 -10 9 -6 9 4 15 3 14 -2 -4 -25 3 -32 30 -29 23 3 29 0 24 -11
-6 -16 22 -20 32 -4 3 6 11 10 17 10 7 0 6 -5 -2 -15 -14 -17 -5 -35 18 -34
15 1 15 2 0 6 -10 2 -18 9 -18 14 0 6 4 8 9 5 16 -10 6 22 -14 44 -19 21 -8
29 13 8 9 -9 12 -9 12 0 0 7 -6 12 -12 12 -9 0 -8 4 2 10 10 6 11 10 3 10 -7
0 -13 5 -13 11 0 5 4 8 8 5 5 -3 9 1 9 9 0 11 -4 12 -14 4 -9 -9 -13 -8 -13 0
0 6 7 14 16 18 13 5 13 7 2 14 -11 7 -10 11 2 20 13 9 12 10 -3 5 -12 -4 -17
-2 -14 6 2 7 9 12 14 11 5 -1 10 8 10 20 2 20 1 20 -8 5 -14 -25 -33 -23 -19
1 5 11 7 27 4 35 -5 12 -2 15 10 10 9 -3 13 -11 9 -17 -4 -6 -1 -7 7 -2 10 6
10 11 -3 20 -19 14 -23 30 -5 19 6 -4 8 -3 4 4 -3 5 0 13 6 15 10 4 10 6 0 6
-7 1 -10 6 -6 13 4 6 3 8 -3 5 -6 -4 -17 1 -24 10 -12 14 -11 15 11 10 14 -4
19 -4 12 -1 -6 3 -9 11 -5 17 11 18 12 37 2 37 -6 0 -9 -7 -7 -16 2 -10 -2
-19 -8 -21 -6 -2 -11 4 -11 14 0 21 16 45 26 38 4 -2 7 10 6 28 -1 18 3 36 9
40 7 6 5 7 -6 4 -9 -3 -22 2 -30 10 -11 14 -11 16 4 10 10 -3 20 -1 24 5 4 6
3 8 -3 5 -6 -4 -17 1 -24 10 -12 15 -12 16 3 10 10 -3 20 -1 24 5 4 7 3 8 -4
4 -7 -4 -24 5 -39 21 l-27 28 17 -27 c9 -15 13 -30 8 -33 -5 -3 -13 4 -16 15
-5 17 -10 19 -21 9 -17 -14 -19 2 -1 21 10 12 9 12 -4 2 -12 -9 -18 -9 -27 0
-16 16 -24 5 -25 -37 -1 -26 -5 -34 -15 -30 -7 3 -17 5 -20 5 -4 0 0 5 8 11
12 8 12 12 2 16 -10 4 -9 8 5 18 17 13 17 14 -1 28 -13 10 -15 16 -8 21 7 4
12 12 12 19 0 6 -6 2 -14 -9 -8 -11 -18 -15 -23 -10 -4 5 -2 11 5 13 6 3 12
10 12 16 -1 7 -9 2 -20 -11 -10 -12 -21 -18 -24 -13 -3 5 1 14 9 21 8 7 15 17
15 22 0 6 -9 0 -20 -13 -21 -26 -26 -20 -9 14 9 20 9 20 -4 5 -8 -10 -17 -15
-21 -11 -4 4 -4 0 -1 -9 5 -14 2 -16 -15 -13 -29 5 -39 15 -16 15 18 0 17 33
-3 67 -14 23 -14 8 -1 -18 8 -13 7 -19 0 -19 -6 0 -13 7 -16 15 -4 8 -12 15
-19 15 -7 0 -16 6 -18 13 -4 9 -6 9 -6 0 -1 -7 8 -17 19 -23 11 -6 20 -15 20
-21 0 -6 -13 -1 -30 11 -16 11 -27 26 -24 33 2 8 -4 22 -16 32 -11 10 -20 13
-20 7 0 -7 -10 -11 -22 -9 -16 1 -23 -3 -22 -15 1 -12 -5 -16 -24 -14 -14 2
-28 8 -30 14 -2 6 5 9 15 8 10 -2 24 5 31 15 7 10 18 17 25 15 6 -1 9 -1 4 1
-4 3 -5 9 -2 14 4 5 -1 6 -9 3 -8 -3 -17 -12 -20 -20 -3 -8 -10 -14 -16 -14
-7 0 -8 6 0 19 18 35 10 35 -13 -1 -25 -36 -29 -90 -9 -110 9 -9 12 -9 12 0 0
23 -2 27 -11 25 -5 -2 -9 2 -9 7 0 14 22 12 43 -4 16 -12 16 -14 1 -20 -9 -4
-14 -13 -10 -21 6 -18 2 -19 -27 -4 -20 9 -20 9 -5 -4 22 -17 11 -31 -11 -14
-14 11 -14 10 -2 -5 7 -10 17 -16 21 -13 4 3 14 -3 21 -12 12 -14 11 -15 -9
-9 -24 8 -29 -3 -10 -22 16 -16 -4 -16 -22 1 -8 6 -6 2 3 -9 14 -17 15 -23 5
-27 -11 -4 -11 -6 0 -6 7 -1 11 -5 7 -10 -3 -6 4 -8 15 -6 11 2 18 0 15 -5 -6
-10 28 -5 46 6 7 4 7 -1 -1 -16 -7 -12 -8 -20 -3 -17 5 3 9 -3 9 -14 0 -10 -3
-19 -7 -19 -11 0 -20 31 -12 43 4 8 1 7 -9 -1 -13 -10 -18 -10 -29 0 -16 16
-44 17 -44 3 0 -5 4 -9 8 -7 5 1 6 -2 2 -7 -6 -11 -35 -3 -35 9 0 5 5 12 10
15 18 11 10 25 -15 25 -14 0 -25 5 -25 11 0 6 -7 9 -15 5 -8 -3 -21 2 -30 10
-8 9 -15 12 -15 7 0 -4 -6 3 -13 17 -7 14 -18 25 -25 25 -7 0 -17 7 -22 15 -5
8 -10 10 -10 5 0 -6 6 -17 13 -25 10 -12 9 -12 -4 -2 -9 6 -18 9 -21 6 -3 -3
-5 1 -5 8 4 27 -49 25 -56 -2 -3 -11 -1 -18 4 -14 5 3 9 -2 9 -11 0 -9 -4 -14
-9 -11 -10 6 -9 -19 1 -29 3 -3 2 -23 -2 -45 -4 -22 -3 -37 1 -34 5 3 9 0 9
-5 0 -6 -3 -11 -7 -11 -15 0 -9 -95 7 -110 9 -8 10 -11 3 -6 -8 5 -16 6 -20 3
-9 -10 18 -38 30 -30 6 3 7 1 3 -6 -6 -9 -11 -9 -22 0 -11 9 -14 8 -14 -2 -1
-9 -4 -8 -11 4 -6 10 -8 24 -6 31 3 7 -1 13 -8 13 -7 0 -11 -6 -9 -12 3 -6 -2
-12 -10 -12 -8 0 -12 6 -9 14 3 8 2 13 -3 12 -22 -4 -35 2 -28 13 4 6 3 8 -3
5 -6 -4 -19 0 -29 8 -10 8 -27 15 -37 15 -10 0 -15 5 -12 10 3 6 -1 10 -10 10
-9 0 -14 4 -11 8 3 5 -12 6 -32 3 -32 -6 -37 -10 -34 -30 3 -17 0 -21 -10 -15
-10 6 -11 5 -1 -7 6 -8 10 -33 9 -56 -1 -24 2 -43 7 -43 4 0 6 -4 2 -10 -3 -5
-13 -6 -23 -3 -16 6 -16 6 1 -11 9 -9 17 -21 17 -26 0 -14 -43 -8 -62 8 -10 8
-18 11 -18 7 0 -4 -8 -1 -18 8 -10 10 -22 14 -26 10 -4 -5 -7 -3 -6 2 1 6 2
17 1 25 -1 12 -3 12 -9 2 -6 -9 -12 -6 -21 12 -11 19 -20 23 -46 21 -29 -3
-33 -1 -30 17 3 15 1 17 -9 9 -11 -9 -13 -6 -10 15 1 14 -1 23 -4 19 -4 -4 -7
-12 -7 -18 0 -5 -7 -12 -15 -14 -9 -3 -11 -1 -5 4 15 12 13 32 -5 43 -8 5 -10
10 -3 10 6 0 9 9 6 20 -3 11 0 20 6 20 6 0 8 -7 4 -17 -6 -15 -5 -16 9 -3 14
13 14 16 -1 27 -9 7 -12 13 -8 13 4 0 2 10 -4 23 -11 20 -11 21 5 8 14 -12 16
-12 10 3 -3 9 -14 16 -23 16 -13 0 -14 2 -1 9 8 6 18 7 24 4 5 -3 6 -1 2 6 -4
6 -13 8 -19 4 -7 -4 -6 1 2 11 8 9 10 16 5 15 -20 -4 -24 2 -14 20 7 14 6 21
-2 23 -7 3 -5 7 6 11 11 5 15 3 10 -5 -4 -7 -3 -8 5 -4 15 10 4 26 -17 26 -14
0 -15 2 -2 10 9 6 20 5 30 -3 13 -11 13 -10 1 5 -7 10 -18 15 -25 11 -6 -4 -5
1 3 11 12 14 12 17 1 14 -16 -3 -20 30 -6 50 4 6 5 12 1 12 -4 0 -1 8 6 17 12
15 12 16 -3 10 -12 -4 -15 -2 -12 8 3 8 13 11 22 9 14 -5 14 -3 -1 6 -14 9
-15 15 -7 25 8 9 8 15 0 20 -6 4 -10 3 -9 -2z m944 -104 c0 -9 6 -23 13 -31 6
-8 8 -19 4 -23 -4 -5 1 -5 10 -2 10 3 20 1 24 -5 5 -7 2 -8 -6 -3 -9 6 -11 4
-5 -4 5 -9 10 -10 18 -2 6 6 18 11 26 11 11 0 10 -4 -5 -14 -18 -14 -18 -15
-1 -21 18 -8 24 -35 6 -35 -5 0 -8 4 -4 9 3 6 -4 15 -15 21 -11 6 -20 7 -20 3
0 -4 -5 0 -11 9 -5 10 -16 15 -25 11 -16 -6 -16 17 1 29 6 4 2 8 -8 8 -10 0
-15 5 -12 10 3 6 1 10 -6 10 -8 0 -7 5 2 18 12 15 12 16 -2 4 -9 -7 -24 -10
-33 -6 -27 10 -18 22 17 20 22 -1 32 -7 32 -17z m-34 -18 c4 -1 10 -9 13 -18
4 -10 4 -14 0 -10 -9 9 -35 -13 -28 -24 3 -5 0 -9 -5 -9 -14 0 -14 27 -1 35 6
3 10 12 10 18 0 9 -2 9 -8 0 -7 -10 -12 -10 -26 0 -16 11 -14 13 11 11 15 -1
31 -3 34 -3z m26 -54 c-1 -7 6 -11 15 -11 15 1 16 -2 6 -19 l-11 -21 -8 22
c-5 12 -15 25 -24 28 -8 3 -13 10 -10 15 8 12 35 0 32 -14z m-38 -12 c12 4 21
-2 29 -20 15 -33 16 -30 -9 -32 -17 -2 -18 1 -8 13 10 12 10 17 0 27 -10 9
-11 8 -5 -8 7 -18 6 -19 -12 -5 -10 8 -16 10 -11 5 4 -4 0 -19 -8 -32 -9 -13
-13 -23 -9 -23 4 0 1 -7 -6 -15 -13 -16 -12 -16 35 -19 26 -1 30 -5 27 -26 -1
-14 1 -20 5 -15 9 11 57 14 68 4 3 -4 -1 -9 -10 -13 -9 -3 -14 -2 -11 3 4 5
-3 7 -13 4 -11 -3 -22 -12 -25 -20 -4 -9 -2 -11 6 -6 14 8 51 13 43 5 -2 -3 0
-13 5 -23 6 -9 7 -19 2 -22 -4 -2 -1 -2 5 -1 7 2 12 -2 10 -9 -1 -7 7 -12 18
-12 11 0 19 6 18 13 -2 6 2 12 7 12 13 0 13 -13 -1 -27 -8 -8 -7 -13 2 -18 8
-6 10 -4 5 6 -4 8 0 5 8 -5 12 -15 16 -16 16 -5 0 11 2 12 9 1 4 -8 12 -13 17
-12 5 1 10 -3 12 -10 2 -6 -2 -9 -8 -8 -7 2 -15 -4 -17 -12 -4 -12 -3 -12 5
-1 7 9 12 10 16 2 4 -6 2 -11 -5 -11 -7 0 -9 -3 -6 -6 3 -4 2 -15 -4 -26 -6
-11 -8 -22 -5 -25 3 -3 9 5 14 17 5 14 11 19 15 13 4 -6 -1 -19 -10 -29 -16
-16 -16 -16 5 -10 12 4 22 3 22 -2 0 -12 -32 -12 -47 1 -14 11 -16 6 -7 -17 3
-9 10 -14 14 -11 15 9 22 -15 10 -30 -10 -12 -10 -15 1 -15 8 -1 1 -8 -14 -16
-16 -9 -31 -13 -35 -10 -3 3 0 6 7 6 8 0 11 7 7 15 -3 8 0 14 6 12 6 -1 12 3
15 10 3 8 -3 11 -17 8 -16 -3 -19 -1 -12 8 5 7 9 27 7 45 -1 21 3 36 11 39 8
3 11 9 8 14 -3 5 -9 7 -14 4 -5 -3 -12 0 -16 6 -4 8 -3 9 4 5 7 -4 12 -5 12
-2 0 2 2 11 5 19 4 8 -1 14 -10 15 -8 1 -22 3 -30 4 -8 1 -12 5 -9 10 3 4 -4
8 -15 8 -12 0 -21 5 -21 11 0 5 -4 7 -10 4 -5 -3 -10 -1 -10 5 0 6 -5 8 -12 4
-9 -5 -8 -2 1 10 10 12 11 20 4 27 -8 8 -13 7 -18 -2 -6 -8 -4 -10 6 -4 11 6
12 5 2 -5 -19 -20 -53 22 -48 60 3 23 0 28 -16 27 -10 -1 -19 -5 -19 -10 0 -5
-7 -4 -15 3 -8 7 -15 9 -15 6 0 -4 -5 -4 -10 -1 -7 4 -7 13 0 24 6 12 5 22 -3
31 -9 10 -9 11 1 6 22 -13 35 4 17 24 -14 16 -14 18 -1 23 10 4 13 13 10 24
-5 17 -5 17 6 0 7 -11 18 -16 29 -12z m-1273 -17 c4 -7 3 -8 -4 -4 -7 4 -12 2
-12 -5 0 -7 -3 -10 -6 -6 -6 5 3 27 11 27 2 0 7 -5 11 -12z m1367 -11 c-4 -6
0 -8 10 -4 10 4 16 2 14 -5 -1 -7 8 -13 21 -14 18 -1 21 2 16 20 -6 21 -6 21
9 1 11 -14 12 -24 5 -32 -13 -16 -32 -17 -22 -1 4 7 3 8 -5 4 -6 -4 -9 -12 -6
-17 4 -5 3 -9 -2 -9 -14 0 -35 17 -34 26 1 5 -7 9 -18 10 -13 1 -18 -4 -14
-15 4 -14 3 -14 -7 -1 -9 12 -10 10 -5 -10 5 -21 4 -22 -5 -8 -8 13 -7 23 5
41 14 22 51 35 38 14z m124 -13 c25 -4 46 -26 32 -35 -20 -12 -18 -49 3 -60
22 -12 50 1 54 25 1 9 -2 14 -6 11 -5 -3 -11 -1 -15 5 -3 5 -1 10 5 10 6 0 8
5 5 10 -3 6 -4 10 -1 10 3 0 13 -14 21 -30 14 -27 14 -31 0 -36 -8 -3 -12 -10
-9 -15 3 -5 -3 -6 -13 -3 -15 5 -15 4 -3 -5 11 -8 8 -9 -15 -7 -16 2 -31 8
-33 15 -2 6 -8 11 -13 11 -6 0 -7 -5 -3 -12 4 -7 3 -8 -5 -4 -6 4 -9 11 -6 16
3 4 -2 10 -10 14 -22 8 -18 25 10 38 28 13 33 27 8 24 -18 -3 -53 22 -53 37 0
5 7 3 16 -4 9 -7 23 -14 31 -15z m-532 6 c3 -6 -1 -7 -9 -4 -18 7 -21 14 -7
14 6 0 13 -4 16 -10z m79 -26 c3 -8 2 -12 -4 -9 -6 3 -10 10 -10 16 0 14 7 11
14 -7z m239 -1 c4 -3 1 -13 -6 -22 -10 -14 -10 -14 4 -4 9 7 19 10 23 6 4 -4
4 1 1 12 -3 11 1 7 11 -9 16 -28 17 -29 30 -11 8 10 14 22 14 27 0 4 5 8 10 8
6 0 9 -3 9 -7 -6 -35 36 -40 70 -9 13 11 21 14 26 7 8 -14 -3 -33 -16 -26 -5
4 -17 1 -26 -4 -10 -6 -14 -11 -8 -11 5 0 -1 -7 -14 -16 -16 -12 -20 -19 -12
-27 13 -13 15 -30 2 -22 -5 3 -13 0 -17 -6 -5 -8 -3 -9 6 -4 10 6 12 4 7 -8
-3 -9 -2 -19 4 -22 5 -4 9 -3 8 2 -3 20 2 34 11 28 7 -4 7 -12 0 -24 -5 -10
-6 -21 -3 -25 3 -3 2 -6 -3 -6 -18 0 -43 54 -33 72 6 11 4 21 -7 32 -17 18
-39 22 -29 6 11 -17 -19 -6 -33 12 -8 12 -23 16 -42 14 -20 -2 -27 0 -22 8 3
6 7 14 8 19 3 15 4 17 12 17 5 0 12 -3 15 -7z m-303 -28 c-7 -8 -17 -15 -23
-15 -6 0 -2 7 9 15 25 19 30 19 14 0z m56 -15 c0 -12 -4 -16 -9 -11 -5 5 -6
14 -3 20 10 15 12 14 12 -9z m441 -24 c18 -28 19 -35 8 -40 -10 -3 -12 0 -8
11 5 12 3 14 -8 8 -8 -4 -11 -5 -7 0 10 10 -11 37 -23 29 -5 -3 -6 2 -3 10 9
23 16 20 41 -18z m157 18 c3 -9 11 -12 18 -8 8 5 9 2 5 -9 -3 -9 1 -24 11 -33
9 -10 17 -24 17 -33 0 -20 -25 -52 -35 -46 -4 3 -13 -9 -20 -25 -7 -16 -17
-27 -22 -24 -5 3 -4 12 3 20 9 11 9 14 0 14 -7 0 -9 5 -6 10 4 6 11 8 16 5 5
-4 12 1 15 10 6 13 8 14 15 3 9 -14 11 -10 12 30 0 19 -34 82 -45 82 -5 0 -8
5 -8 10 0 16 17 12 24 -6z m-519 -28 c16 3 33 8 39 11 7 4 7 1 0 -6 -17 -18
-91 -22 -91 -5 0 9 4 11 12 4 6 -5 24 -7 40 -4z m341 1 c7 -6 -10 -11 -29 -8
-4 1 -3 -9 3 -21 10 -21 10 -21 -9 2 -10 13 -18 27 -16 31 5 8 43 5 51 -4z
m197 -50 c-2 -4 -9 -4 -15 -1 -7 4 -8 2 -4 -4 4 -7 2 -20 -4 -29 -11 -17 -11
-17 -6 0 3 11 2 15 -4 12 -15 -10 -12 12 5 28 13 13 13 16 -2 21 -15 6 -32 -8
-33 -27 0 -5 -4 -5 -10 -2 -6 3 -7 -1 -4 -10 6 -14 1 -13 -26 4 -37 22 -53 20
-43 -6 5 -12 3 -14 -7 -8 -8 5 -11 4 -7 -2 4 -6 0 -13 -8 -17 -17 -6 -19 -1
-6 23 7 13 6 18 -4 18 -11 0 -14 -29 -6 -56 0 -2 13 4 27 13 24 16 25 16 22
-1 -2 -10 -7 -21 -12 -24 -4 -4 -3 -10 3 -13 6 -4 11 -2 11 4 0 6 5 8 11 4 8
-5 8 -9 -1 -14 -18 -11 -3 -30 18 -23 9 3 14 3 10 -2 -4 -4 -3 -14 3 -22 14
-16 -3 -17 -19 -1 -9 9 -15 9 -24 -1 -11 -10 -9 -11 7 -6 15 5 16 4 6 -3 -9
-7 -10 -12 -2 -16 6 -4 11 -2 11 4 0 6 5 8 11 5 6 -5 4 -11 -7 -19 -15 -12
-15 -13 4 -11 11 0 27 7 36 14 20 16 20 3 2 -22 -17 -22 -26 -23 -38 -5 -6 9
-7 5 -3 -12 4 -17 3 -21 -3 -11 -8 11 -11 9 -17 -10 -8 -25 -5 -36 8 -32 4 2
7 -4 7 -13 0 -10 -5 -14 -16 -10 -10 4 -13 2 -8 -6 4 -6 3 -8 -3 -5 -6 4 -14
0 -17 -9 -4 -10 -2 -13 7 -8 7 5 5 0 -3 -11 -14 -16 -15 -16 -18 -1 -2 9 -8
14 -13 10 -5 -3 -6 -10 -3 -16 5 -7 2 -8 -6 -3 -10 6 -6 15 16 34 24 20 30 33
28 58 -1 18 2 30 6 28 15 -9 22 15 10 30 -7 8 -9 15 -5 15 4 0 3 6 -3 13 -6 7
-9 25 -7 39 5 27 -11 47 -42 53 -10 1 -17 8 -15 15 1 7 -2 18 -8 25 -7 9 -8
15 -1 19 6 4 8 13 4 21 -3 8 -1 15 5 15 5 0 13 -7 16 -16 6 -15 8 -15 31 0 14
9 25 13 25 8 0 -5 14 -9 31 -9 21 0 35 8 46 24 l16 24 23 -28 c12 -15 20 -31
17 -36z m-619 45 c2 -4 -5 -9 -17 -9 -17 -2 -19 0 -7 7 18 12 18 12 24 2z
m-649 -31 c3 -5 2 -12 -3 -15 -5 -3 -9 1 -9 9 0 17 3 19 12 6z m731 -11 c0
-12 -4 -16 -9 -11 -5 5 -6 14 -3 20 10 15 12 14 12 -9z m495 2 c-5 -10 -9 -27
-8 -37 1 -13 -4 -20 -15 -20 -10 0 -23 -6 -30 -14 -11 -11 -10 -12 1 -6 11 6
13 4 8 -9 -4 -9 -3 -15 2 -12 4 3 17 -1 27 -9 15 -12 15 -14 3 -9 -10 3 -19 1
-23 -4 -4 -7 27 -9 44 -2 3 1 9 2 13 1 4 -1 7 4 6 11 -3 27 1 39 12 32 8 -4 7
-9 -2 -15 -11 -7 -11 -9 -1 -9 7 0 11 -4 8 -8 -3 -5 3 -18 13 -29 16 -17 17
-22 5 -38 -8 -10 -12 -26 -9 -34 6 -20 -11 -48 -22 -37 -4 5 -2 11 5 13 6 3
12 9 12 14 0 6 -5 7 -10 4 -13 -8 -8 18 5 27 6 5 4 8 -4 8 -11 0 -9 4 5 15 13
11 14 14 4 13 -8 -2 -15 4 -14 13 1 9 -4 16 -11 16 -7 0 -11 -6 -8 -14 4 -9 0
-11 -13 -7 -16 5 -17 4 -4 -6 13 -10 12 -11 -4 -6 -11 4 -24 0 -33 -11 -13
-17 -13 -16 -4 3 6 12 7 25 3 29 -4 3 -7 12 -7 18 0 7 -8 11 -18 11 -13 -2
-15 1 -7 11 8 9 6 17 -5 29 -9 9 -12 16 -5 16 6 0 4 10 -6 25 -15 23 -15 25 0
19 9 -3 13 -11 9 -17 -4 -6 0 -8 9 -4 9 3 20 1 26 -5 7 -7 15 -1 26 21 9 17
19 31 22 31 2 0 0 -8 -5 -18z m-606 -2 c3 -6 -1 -7 -9 -4 -18 7 -21 14 -7 14
6 0 13 -4 16 -10z m-41 -18 c3 -5 -1 -9 -9 -9 -8 0 -12 4 -9 9 3 4 7 8 9 8 2
0 6 -4 9 -8z m207 -9 c13 -16 12 -17 -3 -4 -17 13 -22 21 -14 21 2 0 10 -8 17
-17z m-186 -13 c-3 -5 -12 -10 -18 -10 -7 0 -6 4 3 10 19 12 23 12 15 0z m30
0 c3 -5 1 -10 -4 -10 -6 0 -11 5 -11 10 0 6 2 10 4 10 3 0 8 -4 11 -10z m85 0
c0 -5 -5 -10 -11 -10 -5 0 -7 5 -4 10 3 6 8 10 11 10 2 0 4 -4 4 -10z m140 0
c0 -5 -5 -10 -11 -10 -5 0 -7 5 -4 10 3 6 8 10 11 10 2 0 4 -4 4 -10z m-286
-16 c3 -8 2 -12 -4 -9 -6 3 -10 10 -10 16 0 14 7 11 14 -7z m223 -9 c0 -8 -4
-12 -9 -9 -5 3 -6 10 -3 15 9 13 12 11 12 -6z m423 -16 c0 -14 -17 -10 -23 5
-4 10 -1 13 9 9 7 -3 14 -9 14 -14z m-652 -14 c-3 -3 -9 2 -12 12 -6 14 -5 15
5 6 7 -7 10 -15 7 -18z m31 2 c8 -10 7 -14 -2 -14 -8 0 -14 6 -14 14 0 7 1 13
2 13 2 0 8 -6 14 -13z m122 -4 c13 -16 12 -17 -3 -4 -17 13 -22 21 -14 21 2 0
10 -8 17 -17z m256 -8 c0 -8 -4 -12 -9 -9 -5 3 -6 10 -3 15 9 13 12 11 12 -6z
m-107 -11 c0 -8 -19 -13 -24 -6 -3 5 1 9 9 9 8 0 15 -2 15 -3z m-146 -26 c-3
-4 -9 -8 -15 -8 -5 0 -9 4 -9 8 0 5 7 9 15 9 8 0 12 -4 9 -9z m-603 -25 c13
-16 12 -17 -3 -4 -10 7 -18 15 -18 17 0 8 8 3 21 -13z m559 7 c0 -5 -2 -10 -4
-10 -3 0 -8 5 -11 10 -3 6 -1 10 4 10 6 0 11 -4 11 -10z m200 4 c0 -8 -19 -13
-24 -6 -3 5 1 9 9 9 8 0 15 -2 15 -3z m377 -14 c-1 -12 -7 -18 -14 -16 -7 3
-15 0 -19 -6 -4 -6 -3 -8 2 -5 6 3 16 2 24 -4 13 -7 13 -9 0 -10 -8 -1 -19 -2
-25 -4 -5 -1 -14 -3 -20 -4 -5 -1 -3 -5 5 -11 8 -5 11 -12 7 -16 -3 -4 -15 -1
-24 7 -16 13 -17 12 -5 -3 9 -11 10 -18 2 -23 -5 -3 -10 -2 -10 4 0 5 -9 8
-19 6 -14 -3 -18 1 -14 12 4 11 8 12 13 3 5 -9 10 -6 15 8 3 12 10 21 14 19 4
-1 20 13 35 31 33 38 35 39 33 12z m-533 -8 c3 -5 -1 -9 -9 -9 -8 0 -15 4 -15
9 0 4 4 8 9 8 6 0 12 -4 15 -8z m41 -2 c-3 -5 -12 -10 -18 -10 -7 0 -6 4 3 10
19 12 23 12 15 0z m-125 -14 c0 -3 -4 -8 -10 -11 -5 -3 -10 -1 -10 4 0 6 5 11
10 11 6 0 10 -2 10 -4z m31 -13 c13 -16 12 -17 -3 -4 -10 7 -18 15 -18 17 0 8
8 3 21 -13z m129 7 c0 -5 -5 -10 -11 -10 -5 0 -7 5 -4 10 3 6 8 10 11 10 2 0
4 -4 4 -10z m-7 -35 c-3 -9 -8 -14 -10 -11 -3 3 -2 9 2 15 9 16 15 13 8 -4z
m461 3 c-4 -6 -1 -16 7 -22 23 -18 39 -62 27 -74 -7 -7 -6 -17 1 -31 7 -12 8
-22 4 -22 -37 -6 -53 -4 -57 6 -5 14 11 15 31 2 10 -6 11 -2 4 32 -1 2 -8 -2
-16 -9 -8 -7 -15 -8 -15 -2 0 14 25 33 33 25 4 -3 7 -1 7 5 0 7 -6 12 -12 13
-10 0 -10 2 -1 5 16 7 5 32 -19 45 -16 9 -19 8 -13 -2 6 -8 4 -10 -5 -4 -9 5
-11 4 -6 -3 5 -8 1 -10 -11 -6 -13 4 -15 3 -5 -4 8 -5 14 -13 14 -17 0 -4 -6
-12 -14 -16 -9 -6 -10 -11 -2 -16 6 -5 10 -18 9 -31 -2 -23 26 -48 39 -35 3 3
6 1 6 -5 0 -7 6 -11 13 -9 16 3 16 -25 -1 -31 -7 -2 -11 2 -10 10 2 7 -6 13
-17 14 -46 2 -51 4 -37 12 8 6 1 14 -24 25 -27 13 -33 21 -26 30 6 7 7 19 3
26 -6 9 -11 10 -15 2 -4 -6 -2 -11 3 -11 8 0 7 -7 -1 -20 -9 -14 -14 -16 -20
-7 -4 7 -8 14 -8 17 0 8 60 72 61 66 5 -22 3 -32 -6 -38 -6 -5 -5 -11 4 -17 9
-6 10 -11 2 -15 -12 -8 -6 -26 8 -26 5 0 7 23 6 50 -2 41 1 53 17 61 11 6 17
16 15 23 -3 6 4 13 14 13 12 1 17 -3 13 -9z m-440 -58 c-6 -6 -10 -3 -10 10 0
13 4 16 10 10 7 -7 7 -13 0 -20z m444 -5 c-1 -14 -10 -33 -19 -41 -15 -13 -16
-12 -15 13 1 16 5 34 9 41 14 21 27 13 25 -13z m-378 -25 c0 -5 -5 -10 -11
-10 -5 0 -7 5 -4 10 3 6 8 10 11 10 2 0 4 -4 4 -10z m51 -7 c13 -16 12 -17 -3
-4 -17 13 -22 21 -14 21 2 0 10 -8 17 -17z m124 -13 c3 -5 1 -10 -4 -10 -6 0
-11 5 -11 10 0 6 2 10 4 10 3 0 8 -4 11 -10z m-179 -15 c-1 -8 -8 -21 -16 -28
-10 -10 -11 -9 -4 3 5 8 9 18 10 23 3 14 4 17 8 17 2 0 3 -7 2 -15z m104 -6
c0 -5 -4 -9 -8 -9 -5 0 -9 7 -9 15 0 8 4 12 9 9 4 -3 8 -9 8 -15z m-1926 -8
c3 -5 -1 -14 -8 -20 -12 -10 -14 -9 -11 6 2 10 4 19 4 21 2 5 10 2 15 -7z
m1861 -39 c-3 -3 -11 0 -18 7 -9 10 -8 11 6 5 10 -3 15 -9 12 -12z m59 -42
c-6 -6 -10 -3 -10 10 0 13 4 16 10 10 7 -7 7 -13 0 -20z m-43 3 c13 -16 12
-17 -3 -4 -17 13 -22 21 -14 21 2 0 10 -8 17 -17z m-7 -34 c-2 -4 -12 -6 -22
-4 -9 1 -24 -3 -32 -9 -13 -9 -13 -8 -3 5 12 14 66 22 57 8z m80 3 c3 -5 -1
-9 -9 -9 -8 0 -12 4 -9 9 3 4 7 8 9 8 2 0 6 -4 9 -8z m3 -40 c-10 -10 -14 -22
-10 -27 5 -4 2 -5 -5 -1 -11 6 -10 12 4 27 9 10 19 19 22 19 3 0 -2 -8 -11
-18z m48 -10 c-3 -3 -11 0 -18 7 -9 10 -8 11 6 5 10 -3 15 -9 12 -12z m-174
-9 c13 -16 12 -17 -3 -4 -17 13 -22 21 -14 21 2 0 10 -8 17 -17z m35 -1 c-3
-3 0 -12 6 -21 10 -13 10 -14 -2 -4 -16 15 -23 46 -8 37 5 -3 7 -9 4 -12z m44
-7 c-10 -12 -10 -18 1 -32 12 -17 12 -17 -6 -1 -15 14 -16 20 -5 32 7 9 15 16
17 16 3 0 0 -7 -7 -15z m32 -32 c-1 -4 7 -17 16 -28 17 -20 17 -20 -4 -2 -11
9 -21 24 -21 32 0 8 2 13 5 11 2 -2 4 -8 4 -13z m45 -16 c1 -11 1 -18 0 -16
-2 2 -8 11 -15 20 -9 12 -9 16 1 16 7 0 14 -9 14 -20z m18 -48 c-4 -5 -12 -9
-18 -8 -9 0 -8 2 1 6 6 2 9 10 6 15 -4 7 -2 8 5 4 6 -4 9 -12 6 -17z m-532
-124 c-3 -9 -8 -14 -10 -11 -3 3 -2 9 2 15 9 16 15 13 8 -4z m57 -16 c0 -12
-17 -11 -25 1 -4 6 -11 7 -17 4 -6 -4 -8 -2 -5 4 8 12 47 4 47 -9z m-45 -139
c3 -5 2 -10 -4 -10 -5 0 -13 5 -16 10 -3 6 -2 10 4 10 5 0 13 -4 16 -10z
m-1481 -9 c3 -5 -1 -14 -8 -20 -12 -10 -14 -9 -11 6 2 10 4 19 4 21 2 5 10 2
15 -7z m271 -481 c-3 -5 -12 -10 -18 -10 -7 0 -6 4 3 10 19 12 23 12 15 0z
m1285 -29 c7 -15 7 -19 -5 -17 -8 1 -18 6 -22 11 -5 4 -2 5 6 0 11 -6 13 -4 8
8 -9 23 0 21 13 -2z m-750 -284 c0 -4 5 -5 12 -1 7 4 8 3 4 -4 -5 -9 -14 -7
-31 5 -29 22 -33 38 -5 21 11 -7 20 -16 20 -21z m138 -62 c-3 -3 -9 2 -12 12
-6 14 -5 15 5 6 7 -7 10 -15 7 -18z"/>
<path d="M2755 2749 c-4 -6 -5 -12 -2 -15 2 -3 7 2 10 11 7 17 1 20 -8 4z"/>
<path d="M2990 2660 c0 -5 5 -10 10 -10 6 0 10 5 10 10 0 6 -4 10 -10 10 -5 0
-10 -4 -10 -10z"/>
<path d="M2875 2654 c19 -14 35 -10 35 9 0 7 -4 6 -10 -3 -5 -8 -10 -10 -10
-4 0 6 -7 11 -16 11 -15 0 -14 -2 1 -13z"/>
<path d="M3056 2533 c-6 -14 -5 -15 5 -6 7 7 10 15 7 18 -3 3 -9 -2 -12 -12z"/>
<path d="M2710 2920 c-9 -6 -10 -10 -3 -10 6 0 15 5 18 10 8 12 4 12 -15 0z"/>
<path d="M1730 2896 c0 -2 7 -7 16 -10 8 -3 12 -2 9 4 -6 10 -25 14 -25 6z"/>
<path d="M1901 2863 c1 -4 0 -10 -1 -13 -9 -24 -4 -46 11 -46 16 0 16 2 4 16
-11 12 -12 19 -4 27 8 8 8 13 0 18 -6 3 -11 3 -10 -2z"/>
<path d="M1553 2803 c4 -3 1 -13 -6 -22 -11 -14 -10 -14 6 -2 20 15 22 31 5
31 -6 0 -8 -3 -5 -7z"/>
<path d="M2950 2799 c0 -5 5 -7 10 -4 6 3 10 8 10 11 0 2 -4 4 -10 4 -5 0 -10
-5 -10 -11z"/>
<path d="M1451 2727 c-13 -21 -12 -21 5 -5 10 10 16 20 13 22 -3 3 -11 -5 -18
-17z"/>
<path d="M3064 2742 c3 -5 0 -13 -6 -15 -9 -4 -10 -6 -1 -6 17 -1 25 16 12 25
-7 4 -9 3 -5 -4z"/>
<path d="M3095 2731 c-3 -5 -2 -12 3 -15 5 -3 9 1 9 9 0 17 -3 19 -12 6z"/>
<path d="M1897 2697 c-3 -7 3 -13 14 -13 13 0 15 3 7 13 -6 7 -12 13 -13 13
-2 0 -5 -6 -8 -13z"/>
<path d="M2605 2680 c3 -5 8 -10 11 -10 2 0 4 5 4 10 0 6 -5 10 -11 10 -5 0
-7 -4 -4 -10z"/>
<path d="M2415 2631 c-3 -5 -2 -12 3 -15 5 -3 9 1 9 9 0 17 -3 19 -12 6z"/>
<path d="M1103 2534 c-3 -7 -8 -12 -12 -9 -4 2 -8 -3 -8 -12 0 -12 4 -11 18 6
10 12 23 20 28 17 5 -4 12 -3 15 2 2 4 -4 9 -15 9 -11 1 -23 -5 -26 -13z"/>
<path d="M1910 2520 c-9 -6 -10 -10 -3 -10 6 0 15 5 18 10 8 12 4 12 -15 0z"/>
<path d="M1969 2453 c-13 -16 -12 -17 4 -4 9 7 17 15 17 17 0 8 -8 3 -21 -13z"/>
<path d="M2150 2460 c0 -5 5 -10 11 -10 5 0 7 5 4 10 -3 6 -8 10 -11 10 -2 0
-4 -4 -4 -10z"/>
<path d="M2155 2420 c3 -5 8 -10 11 -10 2 0 4 5 4 10 0 6 -5 10 -11 10 -5 0
-7 -4 -4 -10z"/>
<path d="M2091 2374 c0 -11 3 -14 6 -6 3 7 2 16 -1 19 -3 4 -6 -2 -5 -13z"/>
<path d="M914 2366 c1 -8 5 -18 8 -22 4 -3 5 1 4 10 -1 8 -5 18 -8 22 -4 3 -5
-1 -4 -10z"/>
<path d="M2110 2367 c0 -2 6 -10 14 -16 11 -9 16 -9 22 1 4 7 4 10 -1 6 -4 -4
-14 -3 -22 3 -7 6 -13 9 -13 6z"/>
<path d="M900 2325 c0 -2 6 -8 13 -14 10 -8 14 -7 14 2 0 8 -6 14 -14 14 -7 0
-13 -1 -13 -2z"/>
<path d="M900 2258 c0 -4 4 -8 9 -8 6 0 12 4 15 8 3 5 -1 9 -9 9 -8 0 -15 -4
-15 -9z"/>
<path d="M3155 2111 c-3 -5 -2 -12 3 -15 5 -3 9 1 9 9 0 17 -3 19 -12 6z"/>
<path d="M900 2085 c0 -2 6 -8 13 -14 10 -8 14 -7 14 2 0 8 -6 14 -14 14 -7 0
-13 -1 -13 -2z"/>
<path d="M907 2049 c7 -7 15 -10 18 -7 3 3 -2 9 -12 12 -14 6 -15 5 -6 -5z"/>
<path d="M910 2015 c0 -8 4 -15 8 -15 5 0 9 7 9 15 0 8 -4 15 -9 15 -4 0 -8
-7 -8 -15z"/>
<path d="M2744 1996 c-10 -8 -17 -16 -14 -19 3 -2 14 4 24 14 23 22 18 25 -10
5z"/>
<path d="M2868 1918 c5 -5 16 -8 23 -6 8 3 3 7 -10 11 -17 4 -21 3 -13 -5z"/>
<path d="M2710 1910 c0 -5 5 -10 11 -10 5 0 7 5 4 10 -3 6 -8 10 -11 10 -2 0
-4 -4 -4 -10z"/>
<path d="M910 1855 c0 -8 4 -15 10 -15 5 0 7 7 4 15 -4 8 -8 15 -10 15 -2 0
-4 -7 -4 -15z"/>
<path d="M2714 1849 c-3 -6 -2 -15 3 -20 5 -5 9 -1 9 11 0 23 -2 24 -12 9z"/>
<path d="M2520 1749 c-12 -8 -10 -9 8 -4 22 6 23 5 12 -17 -10 -22 -10 -22 4
-4 23 29 7 47 -24 25z"/>
<path d="M2715 1740 c-3 -5 -1 -10 4 -10 6 0 11 5 11 10 0 6 -2 10 -4 10 -3 0
-8 -4 -11 -10z"/>
<path d="M905 1700 c-3 -5 -1 -10 4 -10 6 0 11 5 11 10 0 6 -2 10 -4 10 -3 0
-8 -4 -11 -10z"/>
<path d="M2420 1700 c18 -12 30 -13 30 -2 0 4 -10 9 -22 9 -18 2 -20 0 -8 -7z"/>
<path d="M2630 1690 c0 -6 -6 -8 -12 -4 -7 4 -9 3 -5 -1 10 -12 37 -15 37 -5
0 5 -4 12 -10 15 -5 3 -10 1 -10 -5z"/>
<path d="M2666 1658 c3 -5 10 -6 15 -3 13 9 11 12 -6 12 -8 0 -12 -4 -9 -9z"/>
<path d="M2510 1551 c0 -6 4 -12 8 -15 5 -3 9 1 9 9 0 8 -4 15 -9 15 -4 0 -8
-4 -8 -9z"/>
<path d="M2642 1463 c25 -27 28 -28 28 -8 0 8 -6 14 -12 13 -7 -2 -12 2 -11 8
1 6 -5 11 -13 11 -10 0 -9 -7 8 -24z"/>
<path d="M910 1476 c0 -2 7 -7 16 -10 8 -3 12 -2 9 4 -6 10 -25 14 -25 6z"/>
<path d="M922 1405 c4 -4 3 -16 -3 -26 -5 -11 -7 -19 -5 -19 3 0 10 9 16 19 7
15 7 22 -2 27 -7 4 -10 4 -6 -1z"/>
<path d="M2796 1321 c-3 -5 2 -15 12 -22 15 -12 16 -12 5 2 -7 9 -10 19 -6 22
3 4 4 7 0 7 -3 0 -8 -4 -11 -9z"/>
<path d="M938 1313 c7 -3 16 -2 19 1 4 3 -2 6 -13 5 -11 0 -14 -3 -6 -6z"/>
<path d="M2626 1213 c-11 -11 -6 -23 9 -23 8 0 15 4 15 9 0 13 -16 22 -24 14z"/>
<path d="M2586 1191 c-3 -5 1 -11 9 -15 8 -3 15 -1 15 4 0 13 -18 22 -24 11z"/>
<path d="M2525 1150 c-3 -5 -1 -10 4 -10 6 0 11 5 11 10 0 6 -2 10 -4 10 -3 0
-8 -4 -11 -10z"/>
<path d="M1315 1080 c-3 -5 -1 -10 4 -10 6 0 11 5 11 10 0 6 -2 10 -4 10 -3 0
-8 -4 -11 -10z"/>
<path d="M1340 1070 c-6 -11 -8 -20 -6 -20 3 0 10 9 16 20 6 11 8 20 6 20 -3
0 -10 -9 -16 -20z"/>
<path d="M1425 1030 c6 -10 4 -12 -11 -6 -15 6 -17 5 -6 -5 9 -9 15 -10 23 -2
8 8 7 13 -2 18 -8 6 -10 4 -4 -5z"/>
<path d="M1465 1000 c-3 -6 1 -7 9 -4 18 7 21 14 7 14 -6 0 -13 -4 -16 -10z"/>
<path d="M1600 906 c0 -2 7 -7 16 -10 8 -3 12 -2 9 4 -6 10 -25 14 -25 6z"/>
<path d="M2013 850 c-1 -11 2 -18 8 -15 11 7 12 35 1 35 -4 0 -8 -9 -9 -20z"/>
<path d="M1706 842 c-3 -5 1 -9 9 -9 8 0 12 4 9 9 -3 4 -7 8 -9 8 -2 0 -6 -4
-9 -8z"/>
<path d="M1777 811 c-4 -17 -3 -21 5 -13 5 5 8 16 6 23 -3 8 -7 3 -11 -10z"/>
<path d="M1816 803 c-9 -10 -7 -33 4 -33 5 0 7 7 3 16 -5 14 -3 15 15 5 12 -7
22 -9 22 -7 0 9 -37 25 -44 19z"/>
<path d="M1965 800 c-3 -6 1 -7 9 -4 18 7 21 14 7 14 -6 0 -13 -4 -16 -10z"/>
</g>
</svg>
